<svg xmlns="http://www.w3.org/2000/svg" version="1.1" xmlns:xlink="http://www.w3.org/1999/xlink" xmlns:svgjs="http://svgjs.dev/svgjs" width="1500" height="1419" viewBox="0 0 1500 1419"><g transform="matrix(1,0,0,1,1.3952844879261193,0.5755547989850811)"><svg viewBox="0 0 261 247" data-background-color="#ffffff" preserveAspectRatio="xMidYMid meet" height="1419" width="1500" xmlns="http://www.w3.org/2000/svg" xmlns:xlink="http://www.w3.org/1999/xlink"><g id="tight-bounds" transform="matrix(1,0,0,1,-0.2426925039789012,-0.09997365579206985)"><svg viewBox="0 0 261.4854133333333 247.2" height="247.2" width="261.4854133333333"><g><svg viewBox="0 0 261.4854133333333 247.2" height="247.2" width="261.4854133333333"><g><svg viewBox="0 0 261.4854133333333 247.2" height="247.2" width="261.4854133333333"><g id="textblocktransform"><svg viewBox="0 0 261.4854133333333 247.2" height="247.2" width="261.4854133333333" id="textblock"><g><svg viewBox="0 0 261.4854133333333 247.2" height="247.2" width="261.4854133333333"><path d="M260.873 53.02C259.644 27.36 256.14 20.227 256.14 20.227 245.384-6.202 231.96-0.506 219.901 3.292 198.609 3.446 177.404 9.091 156.162 12.119 111.575 12.581 66.607 4.986 22.242 23.717 18.074 29.464-4.323 24.846 0.741 56.304 2.069 69.39 6.912 83.913 6.765 95.922 7.429 98.026 8.351 93.202 8.744 96.23 10.121 104.39 12.37 100.541 14.214 105.365 11.645 118.246 13.489 128.971 15.247 140.21 12.149 143.135 8.179 141.749 6.396 151.449 6.212 158.479 5.216 157.145 4.122 156.837 3.323 156.632 1.712 157.402 1.983 159.608 2.905 167.152-1.054 171.514 1.43 178.904-0.279 186.91 2.61 193.838 2.216 202.511 2.167 204.255 2.438 205.744 2.868 206.154 4.773 208.361 1.995 212.672 2.29 217.342 21.836 249.262 43.041 227.195 63.067 241.872 68.267 231.608 64.357 245.516 66.435 243.36 68.058 240.846 69.238 251.263 71.069 245.362 71.352 243.668 70.922 239.665 71.93 240.435 72.459 240.846 72.926 240.743 72.999 238.382 73.11 234.841 72.139 237.048 71.881 235.201 74.671 225.861 73.983 248.081 76.601 247.158 76.478 244.438 75.716 240.538 77.277 241.051 78.826 237.151 78.876 233.918 80.252 242.693 80.301 244.592 80.547 245.926 80.941 246.85 85.243 237.305 89.521 250.237 94.033 245.926 96.799 241.205 99.454 248.492 102.257 246.696 103.24 245.259 104.236 242.693 105.183 247.004 116.775 247.928 129.129 244.079 140.119 247.158 169.487 241.41 200.871 249.518 231.837 241.923 239.139 238.998 246.724 234.841 253.842 231.506 253.842 231.506 259.607 222.371 259.607 181.316S260.836 145.393 261.021 112.703C261.205 80.013 262.066 78.679 260.836 53.02Z" opacity="1" fill="#96e689" data-fill-palette-color="tertiary"></path><g transform="matrix(1,0,0,1,55.76831999999999,26.230666666666668)"><svg width="149.94877333333335" viewBox="2.5 -35 26.95 35" height="194.73866666666666" data-palette-color="#000000"><path d="M5.55-32.25L2.5-32.25 2.5-35 14.55-35Q21.3-35 25.38-31.08 29.45-27.15 29.45-18.3L29.45-18.3Q29.45-9.55 26.6-5.2L26.6-5.2Q24.1-1.4 18.8-0.4L18.8-0.4Q16.45 0 13.3 0L13.3 0 2.5 0 2.5-2.75 5.55-2.75 5.55-32.25ZM14.3-32.25L14.3-32.25 8.95-32.25 8.95-2.75 13.05-2.75Q19.7-2.75 22.2-5.2L22.2-5.2Q24.85-7.75 25.6-12.1L25.6-12.1Q26.05-14.65 26.05-18.05L26.05-18.05Q26.05-25.55 22.78-28.9 19.5-32.25 14.3-32.25Z" opacity="1" transform="matrix(1,0,0,1,0,0)" fill="#000000" class="wordmark-text-0" data-fill-palette-color="quaternary" id="text-0"></path></svg></g></svg></g></svg></g></svg></g><g></g></svg></g><defs></defs></svg><rect width="261.4854133333333" height="247.2" fill="none" stroke="none" visibility="hidden"></rect></g></svg></g></svg>